<?xml version="1.0" encoding="utf-8"?>
<!-- Generated by IcoMoon.io -->
<!DOCTYPE svg PUBLIC "-//W3C//DTD SVG 1.1//EN" "http://www.w3.org/Graphics/SVG/1.1/DTD/svg11.dtd">
<svg version="1.1" xmlns="http://www.w3.org/2000/svg" width="1024" height="1024" viewBox="0 0 1024 1024">
    <g id="icomoon-ignore">
    </g>
    <path fill="#000"
          d="M134 5.6c-16.4 7.2-33.2 27.6-36 43.6-1.2 7.2-1.6 220-1.2 473.6 1.2 458 1.2 460.8 9.6 471.6 4.4 6 13.2 14.8 19.2 19.2 10.8 8.4 13.6 8.4 386.4 8.4s375.6 0 386.4-8.4c6-4.4 14.8-13.2 19.2-19.2 8.4-10.8 8.4-14 9.6-413.6l0.8-402.8-97.6-89.2-98-88.8h-293.2c-234.8 0.4-295.6 1.2-305.2 5.6zM688 144v80h176v736h-704v-896h528v80z"></path>
    <path fill="#000" d="M224 336v32h576v-64h-576v32z"></path>
    <path fill="#000" d="M224 464v32h400v-64h-400v32z"></path>
    <path fill="#000"
          d="M317.6 679.2c-20.8 10-32 24.4-40 52.4-11.6 39.2-1.6 92.8 21.2 113.2 36.4 32.8 105.2 21.6 127.6-21.6 5.6-10.4 5.6-10.4-14.4-15.2-19.6-4.8-20-4.8-30.4 8-9.6 10.8-12.8 12.4-28.8 11.2-27.6-2-34.8-14-34.8-59.2 0-29.6 1.2-37.2 8.4-46.8 14.8-20 50.8-16 58.4 6.8 1.6 5.2 24.8 2.4 35.6-4.4 8.4-5.2-6.4-31.2-23.6-40.8-19.6-11.6-58.8-13.2-79.2-3.6z"></path>
    <path fill="#000"
          d="M476 680.8c-24.4 12.4-34.4 32-28 55.2 5.2 18.8 19.2 29.6 60.8 46 33.2 13.2 42.4 22 36 36-2.8 6.4-8.8 10.4-18.4 12-18 3.6-29.2-0.4-42.8-15.2-10.4-11.6-11.6-11.6-24.4-6.8-20 8-20.8 10.4-11.2 24 11.6 16.4 44.8 32 67.6 32 42.4 0 68.4-18.4 71.2-50.8 2.4-26.8-7.6-41.2-37.6-54.8-50-23.2-59.2-28.4-60.8-36-1.6-10 9.6-18.4 24.8-18.4 7.6 0 15.2 4 22.8 12 11.2 12 11.6 12 29.6 7.2 10-2.8 18.4-6 18.4-7.6s-4.8-8.8-10.8-16c-22.8-27.2-64.4-35.2-97.2-18.8z"></path>
    <path fill="#000"
          d="M600 678.8c0 2 11.6 42.8 25.6 91.2l25.2 88 48 2.4 52-182.4-20-1.2c-10.8-0.8-20.4-0.4-21.6 0.8-0.8 0.8-8.8 27.2-17.2 58.4-8.8 31.6-16.4 58-17.2 58.8-1.2 0.8-8.8-25.6-17.2-58.8l-15.6-60h-20.8c-11.6 0-21.2 1.2-21.2 2.8z"></path>
</svg>
