<?xml version="1.0" standalone="no"?>
<!DOCTYPE svg PUBLIC "-//W3C//DTD SVG 20010904//EN"
 "http://www.w3.org/TR/2001/REC-SVG-20010904/DTD/svg10.dtd">
<svg version="1.0" xmlns="http://www.w3.org/2000/svg"
 width="512.000000pt" height="512.000000pt" viewBox="0 0 512.000000 512.000000"
 preserveAspectRatio="xMidYMid meet">
<metadata>
Created by potrace 1.11, written by Peter Selinger 2001-2013
</metadata>
<g transform="translate(0.000000,512.000000) scale(0.100000,-0.100000)"
fill="#000000" stroke="none">
<path d="M1530 4884 c-87 -18 -112 -29 -176 -79 -173 -134 -257 -372 -257
-720 0 -82 10 -244 18 -284 1 -9 6 -41 11 -71 4 -30 8 -57 9 -60 1 -5 13 -80
21 -136 l5 -31 -128 -32 c-352 -87 -578 -183 -762 -321 -183 -139 -270 -284
-269 -454 1 -156 50 -259 191 -403 133 -135 321 -260 418 -278 32 -6 41 -2 74
26 34 31 37 36 32 77 -6 55 -28 78 -131 138 -300 174 -429 371 -353 537 45 98
163 202 332 291 110 59 400 162 514 183 14 2 28 6 31 8 4 3 29 7 56 10 l49 6
19 -68 c30 -107 99 -318 141 -431 l39 -103 -92 -182 c-194 -388 -332 -767
-397 -1092 -32 -160 -37 -216 -39 -375 -4 -250 51 -426 172 -548 197 -202 512
-184 913 54 127 76 188 123 206 159 31 61 -45 156 -112 139 -14 -3 -75 -37
-134 -75 -217 -135 -380 -200 -511 -202 -89 -2 -131 8 -179 43 -194 141 -194
592 1 1165 76 223 258 645 278 645 3 0 26 -43 50 -95 121 -265 340 -656 506
-902 605 -896 1256 -1348 1659 -1153 72 35 184 151 222 230 33 67 60 146 69
197 2 15 7 34 9 41 28 79 25 479 -6 672 -5 36 -12 79 -14 95 -6 47 -44 221
-72 325 -84 321 -216 676 -373 1005 -55 115 -80 137 -144 129 -32 -4 -81 -45
-89 -74 -6 -22 26 -115 76 -222 101 -214 199 -469 267 -688 23 -74 55 -189 71
-255 78 -317 97 -461 94 -730 -2 -160 -6 -201 -24 -264 -41 -140 -99 -229
-173 -267 -48 -25 -151 -29 -228 -10 -104 26 -243 99 -365 191 -481 362 -1010
1109 -1365 1927 -48 111 -53 86 52 258 102 167 155 249 219 340 33 47 78 112
101 145 22 33 47 65 54 71 9 7 61 10 146 8 161 -3 442 -14 483 -19 17 -2 64
-6 105 -10 41 -3 89 -8 105 -10 17 -2 53 -7 80 -10 28 -3 64 -8 80 -10 17 -3
48 -7 70 -10 55 -8 266 -43 290 -49 6 -2 28 -6 50 -10 22 -5 94 -22 160 -38
66 -16 127 -31 135 -33 78 -18 324 -102 445 -152 155 -64 346 -172 427 -240
75 -63 160 -159 185 -211 35 -73 37 -166 3 -232 -52 -103 -186 -209 -378 -301
-134 -64 -162 -89 -162 -143 1 -69 53 -113 119 -101 54 10 246 104 337 165
109 73 231 198 272 280 70 141 69 299 -3 435 -137 257 -463 473 -975 645 -36
12 -72 24 -80 26 -8 2 -40 10 -70 19 -107 31 -337 84 -475 109 -196 36 -194
35 -255 42 -30 3 -57 7 -60 9 -3 2 -39 6 -80 10 -41 4 -82 9 -91 10 -8 2 -55
6 -105 10 -49 4 -99 8 -111 10 -29 5 -286 17 -390 19 -46 0 -82 4 -80 7 5 16
152 175 287 313 271 277 502 457 735 572 173 85 330 114 439 82 77 -23 150
-115 183 -233 20 -69 24 -321 7 -432 -23 -151 -16 -190 38 -216 34 -16 92 -14
115 4 47 39 70 191 67 449 -1 199 -13 261 -71 380 -61 125 -178 226 -300 259
-149 40 -369 -1 -588 -111 -83 -41 -317 -187 -335 -208 -3 -3 -25 -21 -50 -40
-210 -160 -460 -410 -714 -712 -54 -65 -105 -118 -115 -119 -56 -2 -294 -21
-311 -24 -8 -1 -51 -6 -94 -10 -43 -4 -88 -9 -100 -11 -28 -6 -106 -7 -112 -1
-7 7 -43 207 -52 292 -10 88 -8 442 3 490 49 227 150 345 296 345 82 0 153
-17 239 -58 67 -32 158 -83 185 -104 45 -36 106 -78 134 -92 68 -36 139 6 148
86 5 43 3 46 -47 91 -123 110 -358 241 -490 272 -91 22 -180 25 -260 9z m301
-1514 c5 0 -23 -48 -63 -107 -39 -60 -105 -159 -145 -222 -67 -104 -73 -112
-82 -90 -18 50 -101 315 -107 346 -6 31 -6 31 47 42 58 11 111 17 229 27 41 4
77 8 79 11 3 2 11 1 19 -2 7 -3 18 -5 23 -5z"/>
<path d="M2450 2829 c-185 -93 -226 -350 -79 -484 62 -57 124 -79 214 -79 70
0 88 5 134 29 58 32 114 91 138 145 20 45 25 157 9 207 -40 130 -139 203 -283
209 -63 3 -79 0 -133 -27z"/>
</g>
</svg>
